<?xml version="1.0" encoding="UTF-8"?>
<svg width="321.33mm" height="210.46mm" version="1.1" viewBox="0 0 1138.5714 745.71454" xmlns="http://www.w3.org/2000/svg">
 <g transform="translate(231.43 -128.08)">
  <rect x="-231.43" y="128.08" width="1138.6" height="745.71" ry="2.0947" color="#000000" color-rendering="auto" fill="#81d4fa" image-rendering="auto" shape-rendering="auto" solid-color="#000000" style="isolation:auto;mix-blend-mode:normal"/>
  <path d="m-7.2832 205.77c-15.722 28.538-45.008 47.338-55.504 79.624-5.8003 24.171 10.551 48.959 31.352 57.2 28.171 13.119 66.115 3.2339 81.207-26.792 9.1232-18.811 2.9796-42.066-9.1904-57.56-13.386-20.179-31.154-36.453-46.444-54.706-0.47331 0.74482-0.94662 1.4896-1.4199 2.2345z" color="#000000" color-rendering="auto" fill="#fff" image-rendering="auto" shape-rendering="auto" solid-color="#000000" style="isolation:auto;mix-blend-mode:normal"/>
  <path d="m907.14 130.12-1138.4 742.37c0.31087 0.76617 1.0572 1.3047 1.9375 1.3047h1134.4c1.1605 0 2.0938-0.93524 2.0938-2.0957v-741.52c0-0.0187-5e-3 -0.0361-6e-3 -0.0547z" fill="#4fc3f7" fill-rule="evenodd"/>
  <path d="m48.75 422.85c-35.703 0.73221-71.478-0.63883-107.17 0.6449-16.777 0.17401-23.603 25.364-10.457 35.009 4.8464 3.8857 11.331 4.9051 17.404 4.7637 0.36826 106.61-0.8008 213.27 0.625 319.85 4.5157 22.474 28.897 35.732 50.605 33.992 19.849-0.74811 41.069-14.043 44.286-34.762 1.9226-24.878-0.22298-49.869 0.66702-74.735v-244.13c11.101 0.80922 23.902-6.4286 24.449-18.471 1.1015-11.329-8.8243-22.7-20.406-22.158z" color="#000000" color-rendering="auto" fill="#fff" image-rendering="auto" shape-rendering="auto" solid-color="#000000" style="isolation:auto;mix-blend-mode:normal"/>
  <rect x="-67.885" y="431.01" width="128.99" height="24.059" ry="11.885" color="#000000" color-rendering="auto" fill="#4fc3f7" image-rendering="auto" shape-rendering="auto" solid-color="#000000" style="isolation:auto;mix-blend-mode:normal"/>
  <path d="m-43.483 442.46v334.14c0 17.999 17.881 32.49 40.094 32.49s40.096-14.49 40.096-32.49v-334.14h-80.189z" color="#000000" color-rendering="auto" fill="#4fc3f7" image-rendering="auto" shape-rendering="auto" solid-color="#000000" style="isolation:auto;mix-blend-mode:normal"/>
  <path d="m-35.482 777.01c-1.252 18.03 26.607 32.05 46.42 23.034 13.802-5.4516 20.21-18.76 17.77-30.209v-315.16h-64.189v322.34z" color="#000000" color-rendering="auto" fill="#e1f5fe" image-rendering="auto" shape-rendering="auto" solid-color="#000000" style="isolation:auto;mix-blend-mode:normal"/>
  <path d="m-30.417 523.04v253.76c-1.0142 16.21 25.636 27.232 41.488 17.445 10.175-5.4249 13.566-16.08 11.689-25.388v-245.82h-53.178z" color="#000000" color-rendering="auto" fill="#ef5350" image-rendering="auto" shape-rendering="auto" solid-color="#000000" style="isolation:auto;mix-blend-mode:normal"/>
  <path d="m-24.308 525.14v251.82c-0.89879 16.086 22.718 27.024 36.766 17.312 9.0174-5.3834 12.022-15.958 10.359-25.195v-243.94h-47.125z" color="#000000" color-rendering="auto" fill="#e53935" image-rendering="auto" shape-rendering="auto" solid-color="#000000" style="isolation:auto;mix-blend-mode:normal"/>
  <rect x="-20.582" y="530.23" width="10.607" height="170.25" ry="7.2966" color="#000000" color-rendering="auto" fill="#ef5350" image-rendering="auto" shape-rendering="auto" solid-color="#000000" style="isolation:auto;mix-blend-mode:normal"/>
  <rect transform="matrix(1 0 -.40867 .91268 0 0)" x="136.45" y="476.84" width="25.076" height="7.4154" ry="3.6631" color="#000000" color-rendering="auto" fill="#b3e5fc" image-rendering="auto" shape-rendering="auto" solid-color="#000000" style="isolation:auto;mix-blend-mode:normal"/>
  <path d="m46.302 295.06c3e-6 24.597-22.907 44.536-51.165 44.536s-51.165-19.939-51.165-44.536c-3e-6 -24.597 35.015-52.016 51.165-77.853 23.18 25.838 51.165 53.257 51.165 77.853z" color="#000000" color-rendering="auto" fill="#f44336" image-rendering="auto" shape-rendering="auto" solid-color="#000000" style="isolation:auto;mix-blend-mode:normal"/>
  <text transform="scale(1.0184 .98194)" x="-30.928249" y="317.51907" fill="#ffffff" font-family="Aharoni" font-size="78.16px" font-weight="bold" letter-spacing="0px" stroke-width="1px" word-spacing="0px" style="line-height:125%" xml:space="preserve"><tspan x="-30.928249" y="317.51907">A</tspan></text>
  <path d="m214.95 205.77c-15.722 28.538-45.008 47.338-55.504 79.624-5.8003 24.171 10.551 48.959 31.352 57.2 28.171 13.119 66.115 3.2339 81.207-26.792 9.1232-18.811 2.9796-42.066-9.1904-57.56-13.386-20.179-31.154-36.453-46.444-54.706-0.47331 0.74482-0.94662 1.4896-1.4199 2.2345z" color="#000000" color-rendering="auto" fill="#fff" image-rendering="auto" shape-rendering="auto" solid-color="#000000" style="isolation:auto;mix-blend-mode:normal"/>
  <path d="m270.98 422.85c-35.703 0.73221-71.478-0.63883-107.17 0.6449-16.777 0.17401-23.603 25.364-10.457 35.009 4.8464 3.8857 11.331 4.9051 17.404 4.7637 0.36826 106.61-0.80081 213.27 0.625 319.85 4.5157 22.474 28.897 35.732 50.605 33.992 19.849-0.74811 41.069-14.043 44.286-34.762 1.9226-24.878-0.22299-49.869 0.66701-74.735v-244.13c11.101 0.80922 23.902-6.4286 24.449-18.471 1.1015-11.329-8.8243-22.7-20.406-22.158z" color="#000000" color-rendering="auto" fill="#fff" image-rendering="auto" shape-rendering="auto" solid-color="#000000" style="isolation:auto;mix-blend-mode:normal"/>
  <rect x="154.35" y="431.01" width="128.99" height="24.059" ry="11.885" color="#000000" color-rendering="auto" fill="#4fc3f7" image-rendering="auto" shape-rendering="auto" solid-color="#000000" style="isolation:auto;mix-blend-mode:normal"/>
  <path d="m178.75 442.46v334.14c0 17.999 17.881 32.49 40.094 32.49s40.096-14.49 40.096-32.49v-334.14h-80.189z" color="#000000" color-rendering="auto" fill="#4fc3f7" image-rendering="auto" shape-rendering="auto" solid-color="#000000" style="isolation:auto;mix-blend-mode:normal"/>
  <path d="m186.75 777.01c-1.252 18.03 26.607 32.05 46.42 23.034 13.802-5.4516 20.21-18.76 17.77-30.209v-315.16h-64.189v322.34z" color="#000000" color-rendering="auto" fill="#e1f5fe" image-rendering="auto" shape-rendering="auto" solid-color="#000000" style="isolation:auto;mix-blend-mode:normal"/>
  <path d="m191.82 523.04v253.76c-1.0142 16.21 25.636 27.232 41.488 17.445 10.175-5.4249 13.566-16.08 11.689-25.388v-245.82h-53.178z" color="#000000" color-rendering="auto" fill="#ef5350" image-rendering="auto" shape-rendering="auto" solid-color="#000000" style="isolation:auto;mix-blend-mode:normal"/>
  <path d="m197.93 525.14v251.82c-0.89879 16.086 22.718 27.024 36.766 17.312 9.0174-5.3834 12.022-15.958 10.359-25.195v-243.94h-47.125z" color="#000000" color-rendering="auto" fill="#e53935" image-rendering="auto" shape-rendering="auto" solid-color="#000000" style="isolation:auto;mix-blend-mode:normal"/>
  <rect x="201.65" y="530.23" width="10.607" height="170.25" ry="7.2966" color="#000000" color-rendering="auto" fill="#ef5350" image-rendering="auto" shape-rendering="auto" solid-color="#000000" style="isolation:auto;mix-blend-mode:normal"/>
  <rect transform="matrix(1 0 -.40867 .91268 0 0)" x="358.69" y="476.84" width="25.076" height="7.4154" ry="3.6631" color="#000000" color-rendering="auto" fill="#b3e5fc" image-rendering="auto" shape-rendering="auto" solid-color="#000000" style="isolation:auto;mix-blend-mode:normal"/>
  <path d="m268.54 295.06c1e-5 24.597-22.907 44.536-51.165 44.536s-51.165-19.939-51.165-44.536c-1e-5 -24.597 35.015-52.016 51.165-77.853 23.18 25.838 51.165 53.257 51.165 77.853z" color="#000000" color-rendering="auto" fill="#f44336" image-rendering="auto" shape-rendering="auto" solid-color="#000000" style="isolation:auto;mix-blend-mode:normal"/>
  <path d="m443.24 205.77c-15.722 28.538-45.008 47.338-55.504 79.624-5.8003 24.171 10.551 48.959 31.352 57.2 28.171 13.119 66.115 3.2339 81.207-26.792 9.1232-18.811 2.9796-42.066-9.1904-57.56-13.386-20.179-31.154-36.453-46.444-54.706-0.47331 0.74482-0.94662 1.4896-1.4199 2.2345z" color="#000000" color-rendering="auto" fill="#fff" image-rendering="auto" shape-rendering="auto" solid-color="#000000" style="isolation:auto;mix-blend-mode:normal"/>
  <path d="m499.28 422.85c-35.703 0.73221-71.478-0.63883-107.17 0.6449-16.777 0.17401-23.603 25.364-10.457 35.009 4.8464 3.8857 11.331 4.9051 17.404 4.7637 0.36826 106.61-0.80081 213.27 0.625 319.85 4.5157 22.474 28.897 35.732 50.605 33.992 19.849-0.74811 41.069-14.043 44.286-34.762 1.9226-24.878-0.22299-49.869 0.66701-74.735v-244.13c11.101 0.80922 23.902-6.4286 24.449-18.471 1.1015-11.329-8.8243-22.7-20.406-22.158z" color="#000000" color-rendering="auto" fill="#fff" image-rendering="auto" shape-rendering="auto" solid-color="#000000" style="isolation:auto;mix-blend-mode:normal"/>
  <rect x="382.64" y="431.01" width="128.99" height="24.059" ry="11.885" color="#000000" color-rendering="auto" fill="#4fc3f7" image-rendering="auto" shape-rendering="auto" solid-color="#000000" style="isolation:auto;mix-blend-mode:normal"/>
  <path d="m407.05 442.46v334.14c0 17.999 17.881 32.49 40.094 32.49s40.096-14.49 40.096-32.49v-334.14h-80.189z" color="#000000" color-rendering="auto" fill="#4fc3f7" image-rendering="auto" shape-rendering="auto" solid-color="#000000" style="isolation:auto;mix-blend-mode:normal"/>
  <path d="m415.05 777.01c-1.252 18.03 26.607 32.05 46.42 23.034 13.802-5.4516 20.21-18.76 17.77-30.209v-315.16h-64.189v322.34z" color="#000000" color-rendering="auto" fill="#e1f5fe" image-rendering="auto" shape-rendering="auto" solid-color="#000000" style="isolation:auto;mix-blend-mode:normal"/>
  <path d="m420.11 523.04v253.76c-1.0142 16.21 25.636 27.232 41.488 17.445 10.175-5.4249 13.566-16.08 11.689-25.388v-245.82h-53.178z" color="#000000" color-rendering="auto" fill="#ef5350" image-rendering="auto" shape-rendering="auto" solid-color="#000000" style="isolation:auto;mix-blend-mode:normal"/>
  <path d="m426.22 525.14v251.82c-0.89879 16.086 22.718 27.024 36.766 17.312 9.0174-5.3834 12.022-15.958 10.359-25.195v-243.94h-47.125z" color="#000000" color-rendering="auto" fill="#e53935" image-rendering="auto" shape-rendering="auto" solid-color="#000000" style="isolation:auto;mix-blend-mode:normal"/>
  <rect x="429.95" y="530.23" width="10.607" height="170.25" ry="7.2966" color="#000000" color-rendering="auto" fill="#ef5350" image-rendering="auto" shape-rendering="auto" solid-color="#000000" style="isolation:auto;mix-blend-mode:normal"/>
  <rect transform="matrix(1 0 -.40867 .91268 0 0)" x="586.98" y="476.84" width="25.076" height="7.4154" ry="3.6631" color="#000000" color-rendering="auto" fill="#b3e5fc" image-rendering="auto" shape-rendering="auto" solid-color="#000000" style="isolation:auto;mix-blend-mode:normal"/>
  <path d="m496.83 295.06c1e-5 24.597-22.907 44.536-51.165 44.536s-51.165-19.939-51.165-44.536c-1e-5 -24.597 35.015-52.016 51.165-77.853 23.18 25.838 51.165 53.257 51.165 77.853z" color="#000000" color-rendering="auto" fill="#f44336" image-rendering="auto" shape-rendering="auto" solid-color="#000000" style="isolation:auto;mix-blend-mode:normal"/>
  <path d="m669.52 205.77c-15.722 28.538-45.008 47.338-55.504 79.624-5.8003 24.171 10.551 48.959 31.352 57.2 28.171 13.119 66.115 3.2339 81.207-26.792 9.1232-18.811 2.9796-42.066-9.1904-57.56-13.386-20.179-31.154-36.453-46.444-54.706-0.47331 0.74482-0.94662 1.4896-1.4199 2.2345z" color="#000000" color-rendering="auto" fill="#fff" image-rendering="auto" shape-rendering="auto" solid-color="#000000" style="isolation:auto;mix-blend-mode:normal"/>
  <path d="m725.55 422.85c-35.703 0.73221-71.478-0.63883-107.17 0.6449-16.777 0.17401-23.603 25.364-10.457 35.009 4.8464 3.8857 11.331 4.9051 17.404 4.7637 0.36826 106.61-0.80081 213.27 0.625 319.85 4.5157 22.474 28.897 35.732 50.605 33.992 19.849-0.74811 41.069-14.043 44.286-34.762 1.9226-24.878-0.22299-49.869 0.66701-74.735v-244.13c11.101 0.80922 23.902-6.4286 24.449-18.471 1.1015-11.329-8.8243-22.7-20.406-22.158z" color="#000000" color-rendering="auto" fill="#fff" image-rendering="auto" shape-rendering="auto" solid-color="#000000" style="isolation:auto;mix-blend-mode:normal"/>
  <rect x="608.92" y="431.01" width="128.99" height="24.059" ry="11.885" color="#000000" color-rendering="auto" fill="#4fc3f7" image-rendering="auto" shape-rendering="auto" solid-color="#000000" style="isolation:auto;mix-blend-mode:normal"/>
  <path d="m633.32 442.46v334.14c0 17.999 17.881 32.49 40.094 32.49s40.096-14.49 40.096-32.49v-334.14h-80.189z" color="#000000" color-rendering="auto" fill="#4fc3f7" image-rendering="auto" shape-rendering="auto" solid-color="#000000" style="isolation:auto;mix-blend-mode:normal"/>
  <path d="m641.32 777.01c-1.252 18.03 26.607 32.05 46.42 23.034 13.802-5.4516 20.21-18.76 17.77-30.209v-315.16h-64.189v322.34z" color="#000000" color-rendering="auto" fill="#e1f5fe" image-rendering="auto" shape-rendering="auto" solid-color="#000000" style="isolation:auto;mix-blend-mode:normal"/>
  <path d="m646.39 523.04v253.76c-1.0142 16.21 25.636 27.232 41.488 17.445 10.175-5.4249 13.566-16.08 11.689-25.388v-245.82h-53.178z" color="#000000" color-rendering="auto" fill="#ef5350" image-rendering="auto" shape-rendering="auto" solid-color="#000000" style="isolation:auto;mix-blend-mode:normal"/>
  <path d="m652.49 525.14v251.82c-0.89879 16.086 22.718 27.024 36.766 17.312 9.0174-5.3834 12.022-15.958 10.359-25.195v-243.94h-47.125z" color="#000000" color-rendering="auto" fill="#e53935" image-rendering="auto" shape-rendering="auto" solid-color="#000000" style="isolation:auto;mix-blend-mode:normal"/>
  <rect x="656.22" y="530.23" width="10.607" height="170.25" ry="7.2966" color="#000000" color-rendering="auto" fill="#ef5350" image-rendering="auto" shape-rendering="auto" solid-color="#000000" style="isolation:auto;mix-blend-mode:normal"/>
  <rect transform="matrix(1 0 -.40867 .91268 0 0)" x="813.26" y="476.84" width="25.076" height="7.4154" ry="3.6631" color="#000000" color-rendering="auto" fill="#b3e5fc" image-rendering="auto" shape-rendering="auto" solid-color="#000000" style="isolation:auto;mix-blend-mode:normal"/>
  <path d="m723.1 295.06c1e-5 24.597-22.907 44.536-51.165 44.536s-51.165-19.939-51.165-44.536c-1e-5 -24.597 35.015-52.016 51.165-77.853 23.18 25.838 51.165 53.257 51.165 77.853z" color="#000000" color-rendering="auto" fill="#f44336" image-rendering="auto" shape-rendering="auto" solid-color="#000000" style="isolation:auto;mix-blend-mode:normal"/>
  <text transform="scale(1.0184 .98194)" x="190.22676" y="323.07758" fill="#ffffff" font-family="Aharoni" font-size="78.16px" font-weight="bold" letter-spacing="0px" stroke-width="1px" word-spacing="0px" style="line-height:125%" xml:space="preserve"><tspan x="190.22676" y="323.07758">B</tspan></text>
  <text transform="scale(.8522 1.1734)" x="488.40125" y="265.53677" fill="#ffffff" font-family="Aharoni" font-size="56.41px" font-weight="bold" letter-spacing="0px" stroke-width="1px" word-spacing="0px" style="line-height:125%" xml:space="preserve"><tspan x="488.40125" y="265.53677">AB</tspan></text>
  <text transform="scale(1.0184 .98194)" x="629.74054" y="325.28772" fill="#ffffff" font-family="Aharoni" font-size="78.16px" font-weight="bold" letter-spacing="0px" stroke-width="1px" word-spacing="0px" style="line-height:125%" xml:space="preserve"><tspan x="629.74054" y="325.28772">O</tspan></text>
 </g>
</svg>
